<?xml version="1.0" encoding="utf-8"?>
<!-- Generator: Adobe Illustrator 15.0.0, SVG Export Plug-In . SVG Version: 6.00 Build 0)  -->
<!DOCTYPE svg PUBLIC "-//W3C//DTD SVG 1.1//EN" "http://www.w3.org/Graphics/SVG/1.1/DTD/svg11.dtd">
<svg version="1.1" id="Layer_1" xmlns="http://www.w3.org/2000/svg" xmlns:xlink="http://www.w3.org/1999/xlink" x="0px" y="0px"
	 width="124.56px" height="144px" viewBox="0 0 124.56 144" enable-background="new 0 0 124.56 144" xml:space="preserve">
<g>
	<polygon fill="#FFFFFF" points="124.56,108.001 62.279,144 0,108.001 0,36.002 62.279,0 124.56,36.002 	"/>
	<path fill="#3E79B9" d="M116.527,36.057L66.285,7.05c-2.477-1.431-5.531-1.431-8.008,0L8.034,36.057
		c-2.478,1.432-4.004,4.076-4.004,6.936v58.014c0,2.86,1.526,5.505,4.004,6.935l50.243,29.008c2.477,1.432,5.531,1.432,8.008,0
		l50.242-29.008c2.477-1.43,4.004-4.074,4.004-6.935V42.993C120.531,40.133,119.003,37.489,116.527,36.057 M41.642,41.059
		c-4.722-0.257-6.61,2.231-6.61,6.436v14.163c0,5.663-2.059,8.925-6.008,10.469c3.949,1.462,6.008,4.722,6.008,10.474v13.903
		c0,4.292,1.888,6.692,6.61,6.436v6.095c-7.555,0.602-13.562-2.575-13.562-12.53V82.342c0-5.836-3.436-7.209-7.383-7.209v-6.007
		c3.947,0,7.383-1.375,7.383-7.212V47.495c0-9.955,6.006-13.132,13.562-12.531V41.059z M79.142,58.634
		c-0.361,0.637-0.582,1.301-0.616,2.05c-0.017,0.584-0.286,1.152-0.423,1.74c-0.057,0.254-0.093,0.525-0.074,0.783
		c0.054,0.778-0.26,1.341-0.921,1.714c-0.437,0.249-0.766,0.51-0.498,1.094c0.062,0.128-0.075,0.431-0.22,0.541
		c-0.637,0.514-1.041,1.189-1.357,1.932c-0.26,0.611-0.543,1.216-0.842,1.817c-0.187,0.369-0.126,0.625,0.257,0.755
		c1.538,0.502,1.714,1.889,2.042,3.157c0.045,0.175-0.16,0.468-0.328,0.622c-0.389,0.344-0.523,0.645-0.302,1.19
		c0.174,0.425,0.162,0.972,0.112,1.453c-0.104,0.929-0.285,1.851-0.436,2.767c-0.029,0.192-0.074,0.397-0.055,0.582
		c0.093,0.983-0.232,1.878-0.539,2.782c-0.615,1.828-0.862,3.71-0.693,5.637c0.02,0.167,0.045,0.347,0.045,0.526
		c0.021,0.896-0.045,0.964-0.943,0.945c-0.311-0.016-0.447,0.035-0.363,0.42c0.115,0.525,0.119,1.067,0.162,1.599
		c0.115,1.425,0.256,2.85,0.352,4.277c0.047,0.646,0.113,1.323,0,1.952c-0.314,1.62-1.562,2.403-2.992,2.844
		c-0.877,0.264-1.849,0.264-2.78,0.324c-0.903,0.071-1.785,0.192-2.608,0.61c-1.445,0.723-2.888,0.445-4.301-0.101
		c-0.6-0.225-1.154-0.562-1.764-0.74c-0.701-0.22-1.437-0.301-2.152-0.485c-0.25-0.053-0.503-0.17-0.694-0.343
		c-0.263-0.227-0.456-0.55-0.715-0.791c-0.163-0.151-0.393-0.226-0.593-0.351c-0.678-0.411-0.834-0.75-0.715-1.545
		c0.016-0.12,0.083-0.254,0.057-0.361c-0.08-0.274-0.201-0.541-0.301-0.809c-0.244,0.093-0.531,0.142-0.733,0.301
		c-0.604,0.458-1.173,0.964-1.771,1.442c-0.552,0.442-1.175,0.312-1.703-0.324c-0.354-0.42-0.3-0.841,0.227-1.335
		c0.46-0.428,0.963-0.834,1.459-1.223c0.633-0.474,0.713-0.688,0.312-1.355c-0.38-0.628-0.255-1.307-0.196-1.962
		c0.063-0.832,0.188-1.655,0.344-2.47c0.101-0.551-0.077-0.932-0.514-1.227c-0.583-0.396-1.159-0.808-1.767-1.181
		c-0.564-0.341-0.915-0.808-1.039-1.461c-0.11-0.518-0.353-1.031-0.325-1.541c0.034-0.766,0.231-1.521,0.41-2.273
		c0.072-0.301,0.094-0.506-0.159-0.751c-0.44-0.419-0.456-1.008-0.066-1.469c0.284-0.343,0.644-0.621,0.905-0.975
		c0.15-0.208,0.258-0.498,0.258-0.749c-0.016-1.564-0.729-2.626-2.202-3.23c-1.221-0.504-2.432-1.076-3.396-2.024
		c-0.251-0.252-0.492-0.568-0.604-0.894c-0.311-0.841-0.59-1.711-0.796-2.579c-0.082-0.324-0.034-0.771,0.145-1.035
		c0.747-1.125,0.971-2.337,0.776-3.645c-0.097-0.667,0.057-1.239,0.496-1.719c0.493-0.546,0.705-1.156,0.648-1.891
		c-0.056-0.688,0.167-1.279,0.828-1.576c0.531-0.234,0.723-0.644,0.813-1.155c0.083-0.466,0.197-0.932,0.288-1.395
		c0.283-1.504,1.183-2.514,2.62-2.926c1.31-0.378,2.682-0.572,4.027-0.844c0.023-0.006,0.031-0.006,0.053-0.006
		c1.154-0.089,1.219-0.178,0.889-1.282c-0.316-1.076,0.035-1.963,0.758-2.712c0.459-0.489,0.789-0.933,0.688-1.67
		c-0.082-0.582,0.342-1.022,0.969-1.234c0.386-0.125,0.785-0.201,1.174-0.317c0.614-0.168,1.035-0.528,1.128-1.19
		c0.061-0.419,0.348-0.561,0.729-0.719c2.426-1.023,4.57-0.031,6.686,0.944c0.619,0.285,1.041,0.994,1.57,1.471
		c0.272,0.253,0.623,0.603,0.92,0.576c0.471-0.017,0.494-0.565,0.574-0.963c0.076-0.376,0.145-0.757,0.203-1.147
		c0.224-1.339,0.727-1.81,2.072-1.943c1.262-0.133,2.385,0.155,3.332,1.044c0.363,0.335,0.717,0.678,1.109,0.975
		c0.281,0.208,0.609,0.415,0.937,0.46c0.471,0.053,0.753,0.31,1.087,0.596c1.271,1.076,1.848,2.42,1.514,4.431
		c0,0.771-0.016,1.881,0.002,2.997c0.01,0.74,0.072,1.479,0.104,2.22C79.767,57.134,79.544,57.908,79.142,58.634 M103.861,75.133
		c-3.945,0-7.38,1.373-7.38,7.209v14.162c0,9.955-6.009,13.132-13.562,12.53v-6.095c4.721,0.257,6.608-2.144,6.608-6.436V82.601
		c0-5.752,2.061-9.012,6.009-10.474c-3.948-1.544-6.009-4.806-6.009-10.469V47.495c0-4.205-1.888-6.693-6.608-6.436v-6.095
		c7.554-0.602,13.562,2.576,13.562,12.531v14.419c0,5.836,3.435,7.212,7.38,7.212V75.133z"/>
</g>
</svg>
