<?xml version="1.0" encoding="utf-8"?>
<!-- Generator: Adobe Illustrator 15.0.0, SVG Export Plug-In . SVG Version: 6.00 Build 0)  -->
<!DOCTYPE svg PUBLIC "-//W3C//DTD SVG 1.1//EN" "http://www.w3.org/Graphics/SVG/1.1/DTD/svg11.dtd">
<svg version="1.1" id="Layer_1" xmlns="http://www.w3.org/2000/svg" xmlns:xlink="http://www.w3.org/1999/xlink" x="0px" y="0px"
	 width="437.846px" height="102.361px" viewBox="0 0 437.846 102.361" enable-background="new 0 0 437.846 102.361"
	 xml:space="preserve">
<g>
	<defs>
		<rect id="SVGID_1_" width="437.846" height="102.361"/>
	</defs>
	<clipPath id="SVGID_2_">
		<use xlink:href="#SVGID_1_"  overflow="visible"/>
	</clipPath>
	<g clip-path="url(#SVGID_2_)">
		<path fill="#128ACB" d="M74.415,71.654c-3.607,0.832-7.494,1.249-11.657,1.249c-15.818,0-23.728-7.562-23.728-22.688
			c0-14.016,7.91-21.024,23.728-21.024c4.163,0,8.05,0.418,11.657,1.25v6.244c-3.607-0.833-7.216-1.249-10.823-1.249
			c-11.241,0-16.861,4.927-16.861,14.779c0,10.963,5.62,16.445,16.861,16.445c3.607,0,7.216-0.418,10.823-1.249V71.654z"/>
		<path fill="#128ACB" d="M75.731,51.047c0-14.57,6.939-21.856,20.814-21.856c13.876,0,20.814,7.286,20.814,21.856
			c0,14.544-6.938,21.812-20.814,21.812C82.726,72.859,75.787,65.591,75.731,51.047 M96.545,66.661
			c8.742,0,13.113-5.262,13.113-15.78c0-10.294-4.371-15.444-13.113-15.444c-8.741,0-13.113,5.15-13.113,15.444
			C83.433,61.399,87.804,66.661,96.545,66.661"/>
		<path fill="#128ACB" d="M158.848,70.282c-5.302,1.746-11.837,2.622-19.607,2.622c-13.016,0-19.525-7.576-19.525-22.729
			c0-13.988,6.912-20.983,20.732-20.983c3.775,0,7.34,0.695,10.698,2.081V16.214h7.702V70.282z M151.146,38.101
			c-3.108-1.496-6.66-2.248-10.656-2.248c-8.798,0-13.196,4.679-13.196,14.029c0,11.073,4.398,16.61,13.196,16.61
			c3.996,0,7.548-0.541,10.656-1.624V38.101z"/>
		<path fill="#128ACB" d="M200.419,53.253h-29.431c0,8.938,5.633,13.407,16.902,13.407c3.857,0,7.714-0.418,11.571-1.249v6.242
			c-3.857,0.832-8.547,1.249-14.07,1.249c-14.735,0-22.104-7.452-22.104-22.355c0-14.238,6.978-21.356,20.939-21.356
			C197.603,29.191,202.999,37.214,200.419,53.253 M170.988,46.842h22.396c0.389-7.657-3.081-11.487-10.407-11.487
			C175.484,35.354,171.487,39.185,170.988,46.842"/>
	</g>
	<g clip-path="url(#SVGID_2_)">
		<polygon fill="#183D68" points="238.34,16.214 238.34,25.791 221.271,25.791 221.271,72.903 210.242,72.903 210.242,25.791
			193.174,25.791 193.174,16.214 		"/>
		<path fill="#183D68" d="M229.251,59.292c0-8.689,6.326-13.031,18.983-13.031c2.97,0,5.938,0.277,8.908,0.831v-3.286
			c0-3.915-2.815-5.873-8.452-5.873c-4.772,0-10.073,0.695-15.9,2.081v-8.741c5.827-1.386,11.128-2.081,15.9-2.081
			c12.989,0,19.481,4.804,19.481,14.403v29.308h-6.41l-3.911-3.913c-3.803,2.609-7.994,3.913-12.572,3.913
			C234.594,72.903,229.251,68.367,229.251,59.292 M248.234,53.753c-5.302,0-7.949,1.806-7.949,5.41c0,3.89,2.219,5.829,6.66,5.829
			c3.659,0,7.061-1.137,10.197-3.414v-6.991C254.367,54.03,251.396,53.753,248.234,53.753"/>
		<path fill="#183D68" d="M272.614,72.903V16.214h11.029v18.558c3.442-3.719,7.84-5.58,13.198-5.58
			c10.351,0,15.524,5.384,15.524,16.154v27.557h-11.03V45.346c0-4.831-2.4-7.246-7.202-7.246c-3.579,0-7.076,1.43-10.49,4.29v30.513
			H272.614z"/>
		<path fill="#183D68" d="M380.459,29.192c13.264,0,19.897,6.773,19.897,20.316c0,1.804-0.123,3.607-0.374,5.411H370.97
			c0,6.161,4.522,9.243,13.57,9.243c4.41,0,8.821-0.418,13.236-1.249v8.741c-3.857,0.831-8.546,1.249-14.07,1.249
			c-15.847,0-23.771-7.452-23.771-22.355C359.936,36.31,366.776,29.192,380.459,29.192 M370.97,47.26h18.649v-0.334
			c0-6.049-3.055-9.074-9.16-9.074C374.63,37.852,371.467,40.987,370.97,47.26"/>
		<path fill="#183D68" d="M336.372,29.068c-14.431,0-21.647,7.325-21.647,21.979c0.056,14.628,7.272,21.939,21.647,21.939
			c14.431,0,21.646-7.312,21.646-21.939C358.018,36.394,350.803,29.068,336.372,29.068 M345.818,42.201
			c-0.215,0.383-0.352,0.788-0.371,1.24c-0.011,0.351-0.17,0.693-0.254,1.046c-0.035,0.152-0.06,0.316-0.048,0.473
			c0.033,0.47-0.154,0.809-0.553,1.032c-0.265,0.152-0.464,0.309-0.303,0.661c0.038,0.077-0.042,0.258-0.131,0.327
			c-0.385,0.309-0.628,0.713-0.821,1.165c-0.155,0.369-0.324,0.732-0.505,1.095c-0.114,0.222-0.075,0.38,0.154,0.458
			c0.928,0.3,1.034,1.135,1.23,1.903c0.03,0.104-0.095,0.279-0.196,0.374c-0.234,0.202-0.314,0.388-0.184,0.714
			c0.107,0.26,0.098,0.59,0.071,0.881c-0.062,0.556-0.175,1.111-0.269,1.668c-0.014,0.115-0.041,0.237-0.028,0.348
			c0.053,0.595-0.141,1.136-0.327,1.683c-0.369,1.099-0.519,2.234-0.417,3.396c0.012,0.101,0.023,0.208,0.026,0.315
			c0.016,0.541-0.026,0.582-0.567,0.571c-0.188-0.007-0.274,0.021-0.221,0.255c0.068,0.315,0.071,0.644,0.096,0.963
			c0.073,0.857,0.154,1.72,0.214,2.579c0.027,0.39,0.072,0.8,0,1.177c-0.188,0.979-0.94,1.448-1.802,1.717
			c-0.529,0.157-1.115,0.157-1.678,0.195c-0.547,0.042-1.076,0.113-1.575,0.369c-0.868,0.435-1.736,0.266-2.591-0.064
			c-0.359-0.135-0.695-0.34-1.064-0.443c-0.425-0.134-0.868-0.188-1.299-0.295c-0.149-0.035-0.304-0.102-0.416-0.205
			c-0.161-0.14-0.277-0.333-0.433-0.479c-0.098-0.09-0.236-0.137-0.358-0.212c-0.411-0.246-0.503-0.451-0.43-0.931
			c0.013-0.071,0.049-0.154,0.033-0.217c-0.05-0.166-0.116-0.327-0.181-0.49c-0.149,0.06-0.321,0.089-0.44,0.185
			c-0.366,0.275-0.708,0.583-1.07,0.867c-0.333,0.269-0.708,0.191-1.023-0.195c-0.214-0.253-0.184-0.505,0.137-0.804
			c0.273-0.262,0.577-0.505,0.874-0.736c0.388-0.286,0.435-0.417,0.191-0.821c-0.229-0.378-0.155-0.785-0.119-1.181
			c0.038-0.502,0.112-0.996,0.208-1.489c0.062-0.333-0.048-0.562-0.31-0.738c-0.351-0.244-0.701-0.487-1.064-0.713
			c-0.342-0.209-0.553-0.488-0.63-0.884c-0.066-0.306-0.212-0.621-0.197-0.927c0.024-0.461,0.144-0.916,0.25-1.368
			c0.042-0.183,0.053-0.311-0.095-0.455c-0.265-0.25-0.277-0.607-0.042-0.887c0.173-0.207,0.39-0.374,0.547-0.589
			c0.09-0.125,0.155-0.301,0.155-0.451c-0.009-0.943-0.44-1.582-1.326-1.945c-0.738-0.306-1.469-0.648-2.046-1.225
			c-0.155-0.149-0.298-0.339-0.366-0.535c-0.187-0.509-0.357-1.029-0.48-1.556c-0.052-0.196-0.021-0.466,0.086-0.624
			c0.451-0.681,0.586-1.407,0.47-2.198c-0.061-0.401,0.032-0.746,0.297-1.034c0.297-0.33,0.425-0.696,0.392-1.139
			c-0.034-0.42,0.1-0.776,0.497-0.949c0.324-0.146,0.438-0.393,0.491-0.699c0.053-0.282,0.119-0.562,0.175-0.841
			c0.169-0.91,0.714-1.517,1.579-1.767c0.791-0.229,1.618-0.345,2.427-0.508c0.019-0.003,0.021-0.003,0.032-0.003
			c0.699-0.053,0.735-0.107,0.539-0.773c-0.19-0.649,0.023-1.184,0.457-1.636c0.274-0.294,0.477-0.565,0.411-1.008
			c-0.048-0.351,0.208-0.618,0.589-0.743c0.232-0.078,0.472-0.122,0.707-0.191c0.369-0.103,0.625-0.321,0.678-0.716
			c0.036-0.256,0.209-0.339,0.438-0.434c1.465-0.619,2.756-0.021,4.032,0.568c0.374,0.169,0.63,0.597,0.947,0.889
			c0.167,0.148,0.378,0.36,0.554,0.345c0.286-0.012,0.301-0.339,0.345-0.577c0.051-0.229,0.093-0.458,0.125-0.693
			c0.137-0.809,0.437-1.097,1.249-1.174c0.761-0.081,1.438,0.095,2.01,0.63c0.22,0.202,0.435,0.41,0.673,0.589
			c0.166,0.125,0.362,0.249,0.564,0.276c0.28,0.033,0.452,0.187,0.654,0.36c0.768,0.648,1.109,1.46,0.91,2.67
			c0,0.47-0.006,1.136,0.006,1.808c0.003,0.446,0.038,0.892,0.06,1.338C346.196,41.3,346.062,41.764,345.818,42.201"/>
	</g>
	<g clip-path="url(#SVGID_2_)">
		<path fill="#B0AFB0" d="M34.975,20.6c-4.688-0.255-6.565,2.217-6.565,6.394v14.067c0,5.625-2.045,8.865-5.966,10.399
			c3.921,1.45,5.966,4.688,5.966,10.4v13.812c0,4.261,1.877,6.649,6.565,6.395v6.051c-7.503,0.596-13.47-2.558-13.47-12.445V61.606
			c0-5.798-3.41-7.162-7.332-7.162v-5.966c3.922,0,7.332-1.363,7.332-7.162V26.994c0-9.889,5.967-13.043,13.47-12.447V20.6z"/>
		<path fill="#B0AFB0" d="M402.873,20.294c4.69-0.257,6.564,2.215,6.564,6.394v14.067c0,5.624,2.045,8.867,5.967,10.4
			c-3.922,1.45-5.967,4.687-5.967,10.4v13.812c0,4.263-1.874,6.647-6.564,6.393v6.053c7.501,0.599,13.472-2.556,13.472-12.445V61.3
			c0-5.796,3.408-7.16,7.328-7.16v-5.97c-3.92,0-7.328-1.364-7.328-7.16V26.688c0-9.889-5.971-13.044-13.472-12.445V20.294z"/>
	</g>
</g>
</svg>
